<svg width="18" height="18" viewBox="0 0 18 18" fill="none" xmlns="http://www.w3.org/2000/svg">
<path d="M16.95 18C14.8667 18 12.8043 17.55 10.763 16.65C8.72167 15.75 6.86733 14.4667 5.2 12.8C3.53267 11.1333 2.24933 9.28333 1.35 7.25C0.450667 5.21667 0.000666667 3.15 0 1.05V0H5.9L6.825 5.025L3.975 7.9C4.34167 8.55 4.75 9.16667 5.2 9.75C5.65 10.3333 6.13333 10.875 6.65 11.375C7.13333 11.8583 7.66267 12.321 8.238 12.763C8.81333 13.205 9.434 13.6173 10.1 14L13 11.1L18 12.125V18H16.95ZM3.025 6L4.675 4.35L4.25 2H2.025C2.10833 2.75 2.23333 3.45433 2.4 4.113C2.56667 4.77167 2.775 5.40067 3.025 6ZM11.975 14.95C12.6417 15.2333 13.3127 15.4583 13.988 15.625C14.6633 15.7917 15.334 15.9 16 15.95V13.75L13.65 13.275L11.975 14.95Z" fill="#A9A9A9"/>
</svg>
